#Comment line ignore any data following # character 
#Hierarchical Translation and Rotation (.htr) file 
[Header]	
#Header keywords are followed by a single value 
FileType HTR		#Single word string
DataType HTRS		#Translation followed by rotation and scale data
FileVersion 1		#integer
NumSegments 84		#integer
NumFrames 2		#integer
DataFrameRate 30		#integer, data frame rate in this file
EulerRotationOrder ZYX
CalibrationUnits mm
RotationUnits Degrees
GlobalAxisofGravity Y
BoneLengthAxis Y
ScaleFactor 1.00
[SegmentNames&Hierarchy]
#CHILD	PARENT
MASTER GLOBAL
root MASTER
chest root
L_mid_tent01 root
R_mid_tent01 root
spine01 root
Bip01_Neck chest
L_humerus chest
R_humerus chest
weapon_bone chest
Bip01_Head Bip01_Neck
eye_left_bone Bip01_Head
eye_right_bone Bip01_Head
L_forearm L_humerus
L_front_hand L_forearm
L_weapon_bone L_forearm
L_front_hand01_01 L_front_hand
L_front_hand02_01 L_front_hand
L_front_hand03_01 L_front_hand
L_front_hand01_02 L_front_hand01_01
L_front_hand02_02 L_front_hand02_01
L_front_hand03_02 L_front_hand03_01
R_forearm R_humerus
R_front_hand R_forearm
R_weapon_bone R_forearm
R_front_hand01_01 R_front_hand
R_front_hand02_01 R_front_hand
R_front_hand03_01 R_front_hand
R_front_hand01_02 R_front_hand01_01
R_front_hand02_02 R_front_hand02_01
R_front_hand03_02 R_front_hand03_01
null_rope01_connect L_mid_tent01
Rope1_Seg01 null_rope01_connect
Rope1_Seg02 Rope1_Seg01
Rope1_Seg03 Rope1_Seg02
Rope1_Seg04 Rope1_Seg03
Rope1_Seg05 Rope1_Seg04
Rope1_Seg06 Rope1_Seg05
Rope1_Seg07 Rope1_Seg06
Rope1_Seg09 Rope1_Seg07
L_mid_hand01 Rope1_Seg09
L_mid_hand02 Rope1_Seg09
L_mid_hand03 Rope1_Seg09
null_rope02_connect R_mid_tent01
Rope2_Seg01 null_rope02_connect
Rope2_Seg02 Rope2_Seg01
Rope2_Seg03 Rope2_Seg02
Rope2_Seg04 Rope2_Seg03
Rope2_Seg05 Rope2_Seg04
Rope2_Seg06 Rope2_Seg05
Rope2_Seg07 Rope2_Seg06
Rope2_Seg09 Rope2_Seg07
R_mid_hand01 Rope2_Seg09
R_mid_hand02 Rope2_Seg09
R_mid_hand03 Rope2_Seg09
spine02 spine01
spine03 spine02
pelvis spine03
null_rope03_connect pelvis
null_rope04_connect pelvis
Rope3_Seg01 null_rope03_connect
Rope3_Seg02 Rope3_Seg01
Rope3_Seg03 Rope3_Seg02
Rope3_Seg04 Rope3_Seg03
Rope3_Seg05 Rope3_Seg04
Rope3_Seg06 Rope3_Seg05
Rope3_Seg07 Rope3_Seg06
Rope3_Seg08 Rope3_Seg07
Rope3_Seg09 Rope3_Seg08
R_rear_hand01 Rope3_Seg09
R_rear_hand02 Rope3_Seg09
R_rear_hand03 Rope3_Seg09
Rope4_Seg01 null_rope04_connect
Rope4_Seg02 Rope4_Seg01
Rope4_Seg03 Rope4_Seg02
Rope4_Seg04 Rope4_Seg03
Rope4_Seg05 Rope4_Seg04
Rope4_Seg06 Rope4_Seg05
Rope4_Seg07 Rope4_Seg06
Rope4_Seg08 Rope4_Seg07
Rope4_Seg09 Rope4_Seg08
L_rear_hand01 Rope4_Seg09
L_rear_hand02 Rope4_Seg09
L_rear_hand03 Rope4_Seg09
[BasePosition]
#SegmentName Tx, Ty, Tz, Rx, Ry, Rz, BoneLength
MASTER 0.000000 0.000000 0.000000 -90.000000 0.000000 0.000000 10.000000 
root 0.000000 0.000000 0.000000 0.000000 0.000000 0.000000 10.000000 
chest 0.000000 0.000000 0.000000 0.000000 0.000000 0.000000 10.000000 
L_mid_tent01 0.000000 0.000000 0.000000 0.000000 0.000000 0.000000 10.000000 
R_mid_tent01 0.000000 0.000000 0.000000 0.000000 0.000000 0.000000 10.000000 
spine01 0.000000 0.000000 0.000000 0.000000 0.000000 0.000000 10.000000 
Bip01_Neck 0.000000 0.000000 0.000000 0.000000 0.000000 0.000000 10.000000 
L_humerus 0.000000 0.000000 0.000000 0.000000 0.000000 0.000000 10.000000 
R_humerus 0.000000 0.000000 0.000000 0.000000 0.000000 0.000000 10.000000 
weapon_bone 0.000000 0.000000 0.000000 0.000000 0.000000 0.000000 10.000000 
Bip01_Head 0.000000 0.000000 0.000000 0.000000 0.000000 0.000000 10.000000 
eye_left_bone 0.000000 0.000000 0.000000 0.000000 0.000000 0.000000 10.000000 
eye_right_bone 0.000000 0.000000 0.000000 0.000000 0.000000 0.000000 10.000000 
L_forearm 0.000000 0.000000 0.000000 0.000000 0.000000 0.000000 10.000000 
L_front_hand 0.000000 0.000000 0.000000 0.000000 0.000000 0.000000 10.000000 
L_weapon_bone 0.000000 0.000000 0.000000 0.000000 0.000000 0.000000 10.000000 
L_front_hand01_01 0.000000 0.000000 0.000000 0.000000 0.000000 0.000000 10.000000 
L_front_hand02_01 0.000000 0.000000 0.000000 0.000000 0.000000 0.000000 10.000000 
L_front_hand03_01 0.000000 0.000000 0.000000 0.000000 0.000000 0.000000 10.000000 
L_front_hand01_02 0.000000 0.000000 0.000000 0.000000 0.000000 0.000000 10.000000 
L_front_hand02_02 0.000000 0.000000 0.000000 0.000000 0.000000 0.000000 10.000000 
L_front_hand03_02 0.000000 0.000000 0.000000 0.000000 0.000000 0.000000 10.000000 
R_forearm 0.000000 0.000000 0.000000 0.000000 0.000000 0.000000 10.000000 
R_front_hand 0.000000 0.000000 0.000000 0.000000 0.000000 0.000000 10.000000 
R_weapon_bone 0.000000 0.000000 0.000000 0.000000 0.000000 0.000000 10.000000 
R_front_hand01_01 0.000000 0.000000 0.000000 0.000000 0.000000 0.000000 10.000000 
R_front_hand02_01 0.000000 0.000000 0.000000 0.000000 0.000000 0.000000 10.000000 
R_front_hand03_01 0.000000 0.000000 0.000000 0.000000 0.000000 0.000000 10.000000 
R_front_hand01_02 0.000000 0.000000 0.000000 0.000000 0.000000 0.000000 10.000000 
R_front_hand02_02 0.000000 0.000000 0.000000 0.000000 0.000000 0.000000 10.000000 
R_front_hand03_02 0.000000 0.000000 0.000000 0.000000 0.000000 0.000000 10.000000 
null_rope01_connect 0.000000 0.000000 0.000000 0.000000 0.000000 0.000000 10.000000 
Rope1_Seg01 0.000000 0.000000 0.000000 0.000000 0.000000 0.000000 10.000000 
Rope1_Seg02 0.000000 0.000000 0.000000 0.000000 0.000000 0.000000 10.000000 
Rope1_Seg03 0.000000 0.000000 0.000000 0.000000 0.000000 0.000000 10.000000 
Rope1_Seg04 0.000000 0.000000 0.000000 0.000000 0.000000 0.000000 10.000000 
Rope1_Seg05 0.000000 0.000000 0.000000 0.000000 0.000000 0.000000 10.000000 
Rope1_Seg06 0.000000 0.000000 0.000000 0.000000 0.000000 0.000000 10.000000 
Rope1_Seg07 0.000000 0.000000 0.000000 0.000000 0.000000 0.000000 10.000000 
Rope1_Seg09 0.000000 0.000000 0.000000 0.000000 0.000000 0.000000 10.000000 
L_mid_hand01 0.000000 0.000000 0.000000 0.000000 0.000000 0.000000 10.000000 
L_mid_hand02 0.000000 0.000000 0.000000 0.000000 0.000000 0.000000 10.000000 
L_mid_hand03 0.000000 0.000000 0.000000 0.000000 0.000000 0.000000 10.000000 
null_rope02_connect 0.000000 0.000000 0.000000 0.000000 0.000000 0.000000 10.000000 
Rope2_Seg01 0.000000 0.000000 0.000000 0.000000 0.000000 0.000000 10.000000 
Rope2_Seg02 0.000000 0.000000 0.000000 0.000000 0.000000 0.000000 10.000000 
Rope2_Seg03 0.000000 0.000000 0.000000 0.000000 0.000000 0.000000 10.000000 
Rope2_Seg04 0.000000 0.000000 0.000000 0.000000 0.000000 0.000000 10.000000 
Rope2_Seg05 0.000000 0.000000 0.000000 0.000000 0.000000 0.000000 10.000000 
Rope2_Seg06 0.000000 0.000000 0.000000 0.000000 0.000000 0.000000 10.000000 
Rope2_Seg07 0.000000 0.000000 0.000000 0.000000 0.000000 0.000000 10.000000 
Rope2_Seg09 0.000000 0.000000 0.000000 0.000000 0.000000 0.000000 10.000000 
R_mid_hand01 0.000000 0.000000 0.000000 0.000000 0.000000 0.000000 10.000000 
R_mid_hand02 0.000000 0.000000 0.000000 0.000000 0.000000 0.000000 10.000000 
R_mid_hand03 0.000000 0.000000 0.000000 0.000000 0.000000 0.000000 10.000000 
spine02 0.000000 0.000000 0.000000 0.000000 0.000000 0.000000 10.000000 
spine03 0.000000 0.000000 0.000000 0.000000 0.000000 0.000000 10.000000 
pelvis 0.000000 0.000000 0.000000 0.000000 0.000000 0.000000 10.000000 
null_rope03_connect 0.000000 0.000000 0.000000 0.000000 0.000000 0.000000 10.000000 
null_rope04_connect 0.000000 0.000000 0.000000 0.000000 0.000000 0.000000 10.000000 
Rope3_Seg01 0.000000 0.000000 0.000000 0.000000 0.000000 0.000000 10.000000 
Rope3_Seg02 0.000000 0.000000 0.000000 0.000000 0.000000 0.000000 10.000000 
Rope3_Seg03 0.000000 0.000000 0.000000 0.000000 0.000000 0.000000 10.000000 
Rope3_Seg04 0.000000 0.000000 0.000000 0.000000 0.000000 0.000000 10.000000 
Rope3_Seg05 0.000000 0.000000 0.000000 0.000000 0.000000 0.000000 10.000000 
Rope3_Seg06 0.000000 0.000000 0.000000 0.000000 0.000000 0.000000 10.000000 
Rope3_Seg07 0.000000 0.000000 0.000000 0.000000 0.000000 0.000000 10.000000 
Rope3_Seg08 0.000000 0.000000 0.000000 0.000000 0.000000 0.000000 10.000000 
Rope3_Seg09 0.000000 0.000000 0.000000 0.000000 0.000000 0.000000 10.000000 
R_rear_hand01 0.000000 0.000000 0.000000 0.000000 0.000000 0.000000 10.000000 
R_rear_hand02 0.000000 0.000000 0.000000 0.000000 0.000000 0.000000 10.000000 
R_rear_hand03 0.000000 0.000000 0.000000 0.000000 0.000000 0.000000 10.000000 
Rope4_Seg01 0.000000 0.000000 0.000000 0.000000 0.000000 0.000000 10.000000 
Rope4_Seg02 0.000000 0.000000 0.000000 0.000000 0.000000 0.000000 10.000000 
Rope4_Seg03 0.000000 0.000000 0.000000 0.000000 0.000000 0.000000 10.000000 
Rope4_Seg04 0.000000 0.000000 0.000000 0.000000 0.000000 0.000000 10.000000 
Rope4_Seg05 0.000000 0.000000 0.000000 0.000000 0.000000 0.000000 10.000000 
Rope4_Seg06 0.000000 0.000000 0.000000 0.000000 0.000000 0.000000 10.000000 
Rope4_Seg07 0.000000 0.000000 0.000000 0.000000 0.000000 0.000000 10.000000 
Rope4_Seg08 0.000000 0.000000 0.000000 0.000000 0.000000 0.000000 10.000000 
Rope4_Seg09 0.000000 0.000000 0.000000 0.000000 0.000000 0.000000 10.000000 
L_rear_hand01 0.000000 0.000000 0.000000 0.000000 0.000000 0.000000 10.000000 
L_rear_hand02 0.000000 0.000000 0.000000 0.000000 0.000000 0.000000 10.000000 
L_rear_hand03 0.000000 0.000000 0.000000 0.000000 0.000000 0.000000 10.000000 
#Beginning of Data. Separated by tabs
#Fr	Tx	Ty	Tz	Rx	Ry	Rz	SF
[MASTER]
17 -0.001002 6919.534668 1293.727417 0.001660 0.001660 0.001660 7039.437988
18 -0.001049 7255.935547 1203.499390 0.001660 0.001660 0.001660 7355.066895
[root]
17 -37.669128 -48.965454 1502.080078 -84.169487 -30.607489 -96.551117 1503.349976
18 -37.882366 -51.398926 1502.621826 -85.410667 -29.524565 -96.188286 1503.977783
[chest]
17 -84.512650 -34.090519 0.000000 -1.392621 1.916073 -167.942429 91.129311
18 -84.512650 -34.090519 0.000000 -1.468105 1.852277 -170.869156 91.129311
[L_mid_tent01]
17 27.299379 22.179281 -249.918701 -8.891673 11.423676 38.763191 252.381729
18 27.299395 22.179293 -249.918701 -10.368752 12.825753 37.655209 252.381729
[R_mid_tent01]
17 23.228794 24.509907 226.238495 -176.058151 -9.074411 40.608711 228.744751
18 23.228794 24.509907 226.238495 -173.892349 -9.597684 39.167698 228.744751
[spine01]
17 -0.361383 -0.195265 0.000000 0.002050 0.001143 31.695620 0.410763
18 -0.361383 -0.195265 0.000000 0.002047 0.001149 31.407825 0.410763
[Bip01_Neck]
17 165.484543 71.581718 0.000119 176.643677 -1.657967 43.431911 180.302734
18 165.484543 71.581718 0.000119 176.643677 -1.657967 43.431911 180.302734
[L_humerus]
17 -13.983130 -135.272980 -120.471481 -7.065363 63.740829 82.775703 181.680161
18 -13.983130 -135.272980 -120.471481 -7.039400 63.862324 82.803917 181.680161
[R_humerus]
17 -13.983309 -135.273102 125.287651 25.596910 -64.521523 70.131378 184.909012
18 -13.983309 -135.273102 125.287651 25.646862 -64.655174 70.080200 184.909012
[weapon_bone]
17 235.964890 -300.705902 0.000000 0.000000 -89.951546 -128.212341 382.234833
18 235.964890 -300.705902 0.000000 0.000000 -89.951546 -128.212341 382.234833
[Bip01_Head]
17 213.581848 185.333786 16.708374 4.438732 -1.282231 -43.900688 283.275452
18 213.543701 185.440063 15.337447 4.440182 -1.153556 -43.900532 283.238708
[eye_left_bone]
17 -24.626970 125.451866 -64.772606 0.000000 -90.000000 -99.840431 143.318359
18 -24.626970 125.451866 -64.772606 0.000000 -90.000000 -99.840431 143.318359
[eye_right_bone]
17 -24.626970 125.451866 64.327362 0.000000 -89.972023 80.156380 143.117676
18 -24.626970 125.451866 64.327362 0.000000 -89.965736 80.156380 143.117676
[L_forearm]
17 322.776093 0.000000 -0.000119 0.000431 -0.002307 -111.155769 322.776093
18 322.776093 0.000000 -0.000119 0.000430 -0.002307 -111.119781 322.776093
[L_front_hand]
17 241.149185 -0.042021 -3.300071 -178.667953 -1.835447 -27.422342 241.171753
18 241.149185 -0.042021 -3.300071 -178.667953 -1.835447 -27.422342 241.171753
[L_weapon_bone]
17 156.183838 0.000000 0.000000 0.000014 0.000007 0.000001 156.183838
18 156.183838 0.000000 0.000000 0.000014 0.000007 0.000001 156.183838
[L_front_hand01_01]
17 86.095154 20.947098 -0.655860 -0.282467 -0.528169 66.067474 88.609184
18 86.095154 20.947098 -0.655860 -0.289102 -0.524108 66.611076 88.609184
[L_front_hand02_01]
17 86.935165 -11.437475 24.513514 141.960785 -54.937954 -46.642345 91.046425
18 86.935165 -11.437475 24.513514 142.580521 -55.269005 -47.395390 91.046425
[L_front_hand03_01]
17 86.637497 -14.123976 -20.424902 -142.303543 53.163303 -48.671032 90.126129
18 86.637497 -14.123976 -20.424902 -142.879883 53.494282 -49.391994 90.126129
[L_front_hand01_02]
17 71.020905 -0.000179 0.000030 0.000315 -0.002326 -105.421257 71.020905
18 71.020905 -0.000179 0.000030 0.000315 -0.002326 -105.441971 71.020905
[L_front_hand02_02]
17 71.020927 -0.000119 0.000060 0.000315 -0.002326 -105.421257 71.020927
18 71.020927 -0.000119 0.000060 0.000315 -0.002326 -105.441971 71.020927
[L_front_hand03_02]
17 71.020905 -0.000060 0.000060 0.000315 -0.002326 -105.421257 71.020905
18 71.020905 -0.000060 0.000060 0.000315 -0.002326 -105.441971 71.020905
[R_forearm]
17 322.776428 -0.000060 0.000030 0.201080 0.068247 -109.819130 322.776428
18 322.776428 -0.000060 0.000030 0.201109 0.068162 -109.770760 322.776428
[R_front_hand]
17 238.847015 -0.006795 2.210259 -2.635298 -10.645461 -26.312506 238.857239
18 238.847015 -0.006795 2.210259 -2.635298 -10.645461 -26.312506 238.857239
[R_weapon_bone]
17 155.664093 0.002503 -0.000030 0.003487 0.001180 -90.988930 155.664078
18 155.664093 0.002503 -0.000030 0.003487 0.001180 -90.988930 155.664078
[R_front_hand01_01]
17 87.624611 14.231146 22.918642 -139.271561 -53.333107 43.426708 91.683487
18 87.624611 14.231146 22.918642 -140.217056 -53.925083 44.603291 91.683487
[R_front_hand02_01]
17 89.356956 14.367283 -19.491137 140.080994 51.767307 46.104946 92.579636
18 89.356956 14.367283 -19.491137 140.984955 52.347897 47.247559 92.579636
[R_front_hand03_01]
17 87.286232 -22.307278 -0.143439 0.071479 -0.448702 -63.787704 90.091743
18 87.286232 -22.307278 -0.143439 0.075044 -0.448119 -64.698715 90.091743
[R_front_hand01_02]
17 71.020905 0.000060 0.000119 0.002323 -0.000334 106.381714 71.020905
18 71.020905 0.000060 0.000119 0.002323 -0.000334 106.381714 71.020905
[R_front_hand02_02]
17 71.020844 -0.000030 -0.000119 0.002323 -0.000334 106.381714 71.020836
18 71.020844 -0.000030 -0.000119 0.002323 -0.000334 106.381714 71.020836
[R_front_hand03_02]
17 71.020905 0.000000 0.000030 0.002323 -0.000334 106.381714 71.020905
18 71.020905 0.000000 0.000030 0.002323 -0.000334 106.381714 71.020905
[null_rope01_connect]
17 328.732483 0.000000 -0.000238 -112.199120 -75.419609 -167.325195 328.732483
18 328.732483 0.000000 -0.000238 -118.837631 -72.930435 -161.046234 328.732483
[Rope1_Seg01]
17 -0.000024 -0.000047 0.000094 76.296410 -3.007713 -135.671677 0.000108
18 -0.000023 -0.000045 0.000091 70.219315 -13.324734 -135.621307 0.000104
[Rope1_Seg02]
17 139.999863 -0.000179 0.000000 -23.154985 12.918931 5.055425 139.999863
18 139.999863 -0.000179 0.000000 -8.915941 7.547107 2.335925 139.999863
[Rope1_Seg03]
17 139.999924 0.000060 -0.000060 -13.782587 5.345160 6.786083 139.999924
18 139.999924 0.000060 -0.000060 -5.396160 4.724628 0.591576 139.999924
[Rope1_Seg04]
17 139.999924 -0.000060 -0.000119 -12.929689 5.872749 6.347228 139.999924
18 139.999924 -0.000060 -0.000119 -10.410991 5.731677 5.194643 139.999924
[Rope1_Seg05]
17 139.999832 0.000119 -0.000060 -11.694533 5.442213 6.570755 139.999832
18 139.999832 0.000119 -0.000060 -14.161247 5.765927 13.648506 139.999832
[Rope1_Seg06]
17 139.999954 0.000119 -0.000060 -6.173879 2.141809 4.841422 139.999954
18 139.999954 0.000119 -0.000060 -6.524594 1.652845 9.584648 139.999954
[Rope1_Seg07]
17 139.999985 0.000060 0.000000 -3.785062 1.103669 3.533717 139.999985
18 139.999985 0.000060 0.000000 -3.313439 0.429497 6.390059 139.999985
[Rope1_Seg09]
17 121.602913 0.000119 -0.000089 -89.793175 -1.359789 0.847147 121.602913
18 121.602913 0.000119 -0.000089 -89.793175 -1.359789 0.847147 121.602913
[L_mid_hand01]
17 103.859421 1.038730 8.195221 126.075401 -65.098549 -33.991913 104.187431
18 103.859421 1.038730 8.195221 129.242493 -66.931091 -37.458961 104.187431
[L_mid_hand02]
17 105.572853 -4.139662 -10.864139 -166.035263 42.723965 -69.273842 106.211075
18 105.572853 -4.139662 -10.864139 -168.136536 43.236561 -72.353096 106.211075
[L_mid_hand03]
17 104.641464 17.579376 -3.913581 -7.014418 17.452778 71.596474 106.179977
18 104.641464 17.579376 -3.913581 -6.285013 17.719217 74.000862 106.179977
[null_rope02_connect]
17 328.732849 0.000179 -0.000119 -155.484451 78.556793 -55.989254 328.732849
18 328.732849 0.000179 -0.000119 -158.432663 77.556122 -59.049221 328.732849
[Rope2_Seg01]
17 0.000053 0.000094 0.000000 54.691914 -9.694458 -59.572304 0.000108
18 0.000054 0.000091 0.000000 40.339539 -17.439190 -52.885963 0.000105
[Rope2_Seg02]
17 139.999741 -0.000060 -0.000119 23.118849 -11.122890 -14.131781 139.999756
18 139.999741 -0.000060 -0.000119 24.335321 -13.729260 -17.668262 139.999756
[Rope2_Seg03]
17 140.000107 0.000030 0.000000 11.688421 -9.192600 -8.157784 140.000107
18 140.000107 0.000030 0.000000 10.843875 -12.749038 -8.992051 140.000107
[Rope2_Seg04]
17 139.999802 0.000000 -0.000060 -0.415211 -3.271212 1.948173 139.999802
18 139.999802 0.000000 -0.000060 1.091269 -4.028516 -0.165391 139.999802
[Rope2_Seg05]
17 139.999985 -0.000060 0.000119 -5.435730 0.784971 7.500867 139.999985
18 139.999985 -0.000060 0.000119 -3.043606 2.595804 4.813583 139.999985
[Rope2_Seg06]
17 139.999893 -0.000030 -0.000119 -2.812190 -0.431818 4.525283 139.999893
18 139.999893 -0.000030 -0.000119 -2.409851 1.731034 3.854606 139.999893
[Rope2_Seg07]
17 139.999893 0.000060 -0.000060 -1.468810 -0.681279 2.686521 139.999893
18 139.999893 0.000060 -0.000060 -1.193760 0.364607 2.075288 139.999893
[Rope2_Seg09]
17 121.338966 0.000089 -0.000060 33.793236 -1.359788 -0.847141 121.338966
18 121.338966 0.000089 -0.000060 33.793236 -1.359788 -0.847141 121.338966
[R_mid_hand01]
17 104.680779 11.144459 -10.335981 -28.450209 39.729855 52.441807 105.778534
18 104.680779 11.144459 -10.335981 -24.361835 42.075401 58.684284 105.778534
[R_mid_hand02]
17 104.070427 2.443552 8.231699 63.903580 -55.672924 22.558943 104.424065
18 104.070427 2.443552 8.231699 59.930573 -60.321301 27.236141 104.424065
[R_mid_hand03]
17 106.028137 -11.221827 -5.996406 -173.263687 14.341302 -61.789295 106.788818
18 106.028137 -11.221827 -5.996406 -174.631485 14.897616 -67.203407 106.788818
[spine02]
17 129.756927 0.001550 0.000119 0.534315 -4.024356 -15.422028 129.756927
18 129.756927 0.001550 0.000119 0.530016 -4.024931 -15.369446 129.756927
[spine03]
17 78.614227 0.081540 -4.899004 1.999574 3.779497 18.034771 78.766762
18 78.614243 0.081544 -4.899004 1.998890 3.782508 18.002247 78.766785
[pelvis]
17 169.435242 0.051022 0.000000 -0.070309 -0.177745 17.253162 169.435257
18 169.435242 0.051022 0.000000 -0.070208 -0.177785 17.188129 169.435257
[null_rope03_connect]
17 -1.257226 -2.466202 137.391083 -27.210447 -82.926926 96.590881 137.418976
18 -1.257226 -2.466202 137.391083 -34.412235 -83.619232 102.982681 137.418976
[null_rope04_connect]
17 -1.259640 -2.480268 -137.844437 -27.210447 -82.926926 96.590881 137.872513
18 -1.259640 -2.480268 -137.844437 -34.412235 -83.619232 102.982681 137.872513
[Rope3_Seg01]
17 -0.000035 0.000000 -0.000058 -133.533371 14.349869 -89.374542 0.000068
18 -0.000034 0.000000 -0.000062 -131.652603 9.580323 -83.448517 0.000071
[Rope3_Seg02]
17 139.999924 -0.000119 0.000060 1.868433 6.404005 -4.467626 139.999924
18 139.999924 -0.000119 0.000060 1.491545 9.507743 -1.720667 139.999924
[Rope3_Seg03]
17 139.999924 -0.000119 0.000119 2.106139 7.760714 -6.001224 139.999924
18 139.999924 -0.000119 0.000119 2.827688 12.827744 -2.896824 139.999924
[Rope3_Seg04]
17 139.999924 0.000119 0.000000 2.288309 11.697662 -10.550346 139.999924
18 139.999924 0.000119 0.000000 5.609006 19.413765 -6.155766 139.999924
[Rope3_Seg05]
17 139.999924 -0.000238 0.000060 -0.696817 -2.144586 3.472929 139.999924
18 139.999924 -0.000238 0.000060 -3.298909 -7.112527 4.505709 139.999924
[Rope3_Seg06]
17 139.999893 -0.000119 -0.000060 -4.007703 -9.227450 10.860424 139.999893
18 139.999893 -0.000119 -0.000060 -7.236864 -17.435625 8.437161 139.999893
[Rope3_Seg07]
17 139.999771 0.000060 -0.000119 -1.337832 -3.893703 4.294250 139.999771
18 139.999771 0.000060 -0.000119 -1.612812 -6.828520 2.555747 139.999771
[Rope3_Seg08]
17 139.999985 -0.000060 0.000000 -0.616084 -2.403844 2.557471 139.999985
18 139.999985 -0.000060 0.000000 -0.542432 -4.033535 1.396566 139.999985
[Rope3_Seg09]
17 90.185997 -0.000179 -0.000060 89.793228 -1.359877 -0.847183 90.185997
18 90.185997 -0.000179 -0.000060 89.793228 -1.359877 -0.847183 90.185997
[R_rear_hand01]
17 103.366196 -6.073594 -10.757982 -171.885513 23.373785 -59.632885 104.101845
18 103.366196 -6.073594 -10.757982 -174.043228 23.976637 -65.002998 104.101845
[R_rear_hand02]
17 100.509819 12.039542 -7.992327 -21.647255 32.954239 56.905464 101.543350
18 100.509819 12.039542 -7.992327 -18.533085 34.659092 62.503902 101.543350
[R_rear_hand03]
17 101.539970 5.215704 5.435467 78.870155 -59.127991 13.449200 101.819031
18 101.539970 5.215704 5.435467 76.952385 -63.971771 15.629117 101.819031
[Rope4_Seg01]
17 0.000010 0.000038 -0.000114 50.796680 -9.448204 -115.122841 0.000121
18 0.000010 0.000038 -0.000114 51.142597 -8.696443 -122.711525 0.000121
[Rope4_Seg02]
17 139.999985 0.000060 0.000119 1.343696 5.745633 8.033773 139.999985
18 139.999985 0.000060 0.000119 2.347015 6.852050 9.667870 139.999985
[Rope4_Seg03]
17 139.999924 0.000000 -0.000238 0.656464 4.167931 8.972606 139.999924
18 139.999924 0.000000 -0.000238 1.466872 7.194658 10.998352 139.999924
[Rope4_Seg04]
17 139.999985 0.000000 0.000119 -0.290498 2.804468 9.335285 139.999985
18 139.999985 0.000000 0.000119 -0.061449 7.069544 14.021136 139.999985
[Rope4_Seg05]
17 139.999802 -0.000060 -0.000119 1.077428 6.118536 -6.035766 139.999802
18 139.999802 -0.000060 -0.000119 1.095985 3.828286 -3.698621 139.999802
[Rope4_Seg06]
17 139.999924 0.000000 0.000060 2.125401 6.369974 -12.379457 139.999924
18 139.999924 0.000000 0.000060 2.409461 1.190081 -12.449653 139.999924
[Rope4_Seg07]
17 139.999802 0.000000 0.000000 1.301696 3.374219 -5.642800 139.999802
18 139.999802 0.000000 0.000000 0.922982 1.031046 -5.462441 139.999802
[Rope4_Seg08]
17 139.999924 0.000000 0.000119 -0.697371 1.961051 -3.255611 139.999924
18 139.999924 0.000000 0.000119 -1.060086 0.691732 -2.952873 139.999924
[Rope4_Seg09]
17 90.185791 0.000060 0.000060 -135.617828 2.228885 0.850567 90.185791
18 90.185791 0.000060 0.000060 -135.617828 2.228885 0.850567 90.185791
[L_rear_hand01]
17 101.696655 -8.392275 -7.654577 -14.676040 -36.272415 110.857796 102.329041
18 101.696655 -8.392275 -7.654577 -13.354956 -36.717747 108.641342 102.329041
[L_rear_hand02]
17 102.726799 -1.568258 5.773216 73.610291 69.437737 160.740738 102.900848
18 102.726799 -1.568258 5.773216 72.111618 71.190071 159.144638 102.900848
[L_rear_hand03]
17 104.552910 9.721220 -10.420293 -176.571304 -24.441328 -108.830574 105.519653
18 104.552910 9.721220 -10.420293 -177.406540 -24.537506 -106.814919 105.519653
